<svg viewBox="0 0 302 302" xmlns="http://www.w3.org/2000/svg" xmlns:bx="https://boxy-svg.com">
  <defs>
    <radialGradient gradientUnits="userSpaceOnUse" cx="173.744" cy="166.139" r="150" id="gradient-0" spreadMethod="pad" gradientTransform="matrix(1, 0, 0, 1, 0, 0)">
      <stop offset="0" style="stop-color: rgb(127, 255, 242);"></stop>
      <stop offset="1" style="stop-color: rgba(6, 158, 143, 1)"></stop>
    </radialGradient>
    <bx:grid x="-0.633" y="0" width="100" height="100"></bx:grid>
    <radialGradient gradientUnits="userSpaceOnUse" cx="203.985" cy="60.288" r="25.011" id="gradient-1" gradientTransform="matrix(0.948112, 1.742356, -1.340737, 0.729572, 37.800106, -303.461648)">
      <stop offset="0" style="stop-color: rgba(255, 242, 0, 1)"></stop>
      <stop offset="1" style="stop-color: rgba(153, 145, 0, 1)"></stop>
    </radialGradient>
  </defs>
  <path style="stroke: rgb(199, 234, 81); fill: url(#gradient-1);" d="M 159.167 1.212 C 154.267 1.212 153.42 69.624 153.71 69.624 C 153.198 68.335 174.16 48.783 175.77 50.95 C 174.104 49.204 149.901 103.876 149.901 111.015 C 149.901 104.01 130.017 50.584 125.8 51.505 C 126.792 50.009 146.85 68.676 146.184 69.681 C 147.115 69.681 145.598 3.391 139.952 1.395 C 140.107 1.394 141.533 1.155 142.973 1.08 C 144.406 1.007 145.839 1.005 146.007 0.992 L 149.309 0.946 L 152.519 1.014 L 155.836 1.064 L 159.167 1.212 Z M 175.823 51.047 C 175.809 51.011 175.791 50.979 175.77 50.95 C 175.791 50.973 175.809 51.005 175.823 51.047 Z" bx:origin="0.509646 0.5"></path>
</svg>